<?xml version="1.0" standalone="no"?>
<!DOCTYPE svg PUBLIC "-//W3C//DTD SVG 20010904//EN"
 "http://www.w3.org/TR/2001/REC-SVG-20010904/DTD/svg10.dtd">
<svg version="1.0" xmlns="http://www.w3.org/2000/svg"
 width="500.000000pt" height="75.000000pt" viewBox="0 0 500.000000 75.000000"
 preserveAspectRatio="xMidYMid meet">

<g transform="translate(0.000000,75.000000) scale(0.100000,-0.100000)"
fill="#000000" stroke="none">
<path d="M475 705 c-16 -7 -69 -58 -117 -113 -66 -76 -84 -102 -75 -111 9 -9
8 -11 -4 -6 -12 4 -38 -19 -93 -82 -42 -48 -76 -95 -76 -103 0 -39 80 -99 132
-100 9 0 55 44 101 97 73 83 83 99 71 110 -8 8 -14 23 -14 34 0 29 19 61 32
53 7 -4 7 -9 0 -13 -17 -11 -19 -66 -2 -66 17 0 150 146 150 164 0 7 7 25 15
40 14 28 14 29 -16 41 -16 7 -40 25 -52 40 -20 25 -24 26 -52 15z m17 -60 c-2
-5 -8 -9 -13 -8 -4 2 -6 -3 -3 -11 5 -13 -24 -31 -34 -21 -3 3 0 5 7 5 7 0 9
9 5 26 -6 23 -4 25 17 22 13 -1 22 -7 21 -13z m10 -95 c4 -27 3 -29 -21 -23
-14 3 -30 10 -36 15 -6 6 -3 6 9 2 16 -6 18 -4 14 14 -5 17 -2 22 12 22 12 0
19 -9 22 -30z m-158 -76 c-1 -5 -4 -24 -8 -42 -3 -21 -2 -31 4 -27 6 3 10 1
10 -4 0 -17 -27 -13 -34 4 -3 8 -9 15 -13 14 -27 -5 -43 3 -43 21 0 13 7 20
20 20 11 0 20 -6 20 -12 0 -9 4 -8 10 2 8 12 10 10 11 -10 1 -18 3 -20 6 -7 3
10 0 24 -6 31 -6 7 -8 16 -4 20 9 8 28 1 27 -10z m36 -24 c-7 -24 -6 -38 3
-48 10 -12 9 -14 -3 -10 -19 6 -25 64 -9 84 17 21 20 13 9 -26z m-90 -50 c0
-5 -4 -10 -9 -10 -6 0 -13 5 -16 10 -3 6 1 10 9 10 9 0 16 -4 16 -10z m-33
-66 c0 -7 -6 -10 -14 -7 -7 3 -20 0 -28 -7 -18 -15 -20 -5 -2 14 15 17 44 17
44 0z m-4 -61 c-7 -2 -13 -9 -13 -14 0 -6 5 -7 10 -4 6 3 10 1 10 -4 0 -19
-35 -12 -48 9 -11 19 -10 20 20 19 18 0 27 -3 21 -6z"/>
<path d="M155 676 c-16 -18 -36 -35 -43 -37 -10 -3 -11 -11 -3 -32 14 -36 14
-133 1 -216 -6 -35 -9 -65 -8 -67 4 -4 312 352 317 367 2 7 -26 10 -90 8 -52
-1 -105 0 -119 3 -20 5 -32 -1 -55 -26z m77 -34 c-2 -17 3 -21 30 -24 18 -2
31 -7 28 -13 -3 -5 -18 -9 -33 -7 -28 2 -28 1 -26 -41 2 -23 -1 -48 -5 -55
-15 -24 -23 -2 -18 48 l5 50 -31 -2 c-17 -2 -32 2 -34 7 -2 6 12 11 30 13 24
2 33 8 31 20 -2 28 0 34 14 29 6 -2 11 -13 9 -25z"/>
<path d="M489 433 l-75 -88 60 1 c80 2 96 -7 96 -54 1 -32 2 -34 12 -18 12 21
4 207 -10 232 -6 10 -28 -9 -83 -73z"/>
<path d="M333 253 l-62 -70 40 -27 c41 -26 41 -26 65 -7 14 11 57 32 97 48
l72 28 -72 3 -72 3 -3 46 -3 46 -62 -70z"/>
<path d="M25 270 c-17 -19 -17 -21 0 -46 l17 -26 22 23 c21 22 22 26 8 47 -18
27 -24 27 -47 2z"/>
<path d="M623 268 c-8 -19 -6 -27 12 -46 17 -18 24 -20 32 -10 20 26 21 46 4
62 -24 22 -36 20 -48 -6z"/>
<path d="M113 234 c9 -12 15 -28 11 -37 -10 -27 82 -73 185 -91 l35 -6 -23 23
c-12 13 -53 37 -92 52 -39 15 -84 39 -102 53 -22 18 -26 20 -14 6z"/>
<path d="M562 221 c-12 -11 -53 -31 -91 -45 -37 -15 -79 -38 -91 -51 l-24 -25
35 6 c103 18 195 64 185 91 -4 9 -1 22 5 29 16 19 8 17 -19 -5z"/>
<path d="M56 185 c-22 -34 -21 -39 21 -75 139 -123 372 -127 531 -11 53 39 58
52 37 85 l-17 26 -40 -35 c-76 -64 -120 -79 -238 -79 -120 -1 -169 16 -238 78
l-40 36 -16 -25z m38 -30 c-4 -10 -2 -13 8 -10 8 3 22 -3 32 -14 10 -11 23
-18 27 -15 5 3 6 -2 2 -11 -4 -12 -8 -13 -13 -5 -4 6 -10 11 -14 11 -15 -2
-22 1 -44 19 -13 11 -21 24 -17 30 10 16 25 12 19 -5z m514 -27 c-46 -40 -64
-49 -88 -40 -20 7 -21 10 -7 15 10 4 17 2 17 -3 0 -6 4 -10 10 -10 5 0 8 6 6
13 -1 6 -1 9 1 5 10 -18 24 -6 18 13 -5 15 -4 19 4 15 6 -4 11 -1 12 6 0 10 2
10 6 0 7 -19 23 -4 16 16 -6 15 -5 15 10 3 16 -13 16 -15 -5 -33z m-384 -49
c23 3 33 -1 33 -14 0 -20 -7 -19 -24 3 -14 16 -14 16 -9 0 3 -10 1 -18 -4 -18
-6 0 -10 7 -10 16 0 8 -4 12 -10 9 -6 -3 -7 1 -3 10 4 12 8 13 13 5 4 -6 10
-11 14 -11z m260 0 c-4 -8 1 -9 17 -5 20 6 21 5 6 -4 -18 -11 -37 -6 -37 11 0
5 5 9 11 9 5 0 7 -5 3 -11z m-177 -24 c0 -8 -4 -15 -9 -15 -4 0 -8 7 -8 15 0
8 4 15 8 15 5 0 9 -7 9 -15z m143 -1 c0 -14 -3 -14 -15 -4 -10 9 -15 9 -15 1
0 -6 -4 -11 -10 -11 -22 0 -8 26 15 28 17 1 25 -3 25 -14z m-62 -6 c-5 -14
-60 -16 -65 -2 -2 5 13 11 33 12 25 2 35 -1 32 -10z"/>
</g>
</svg>
